<?xml version="1.0" encoding="utf-8"?>
<svg xmlns="http://www.w3.org/2000/svg" width="1200" height="630" viewBox="0 0 1200 630" fill="none">
  <defs>
    <linearGradient id="bg" x1="0" y1="0" x2="1200" y2="630" gradientUnits="userSpaceOnUse">
      <stop offset="0" stop-color="#0b1022"/>
      <stop offset="1" stop-color="#1e3a8a"/>
    </linearGradient>
    <mask id="a" fill="#fff">
      <path d="M0 0h313.303v159.865H0z" fill="#fff" fill-rule="evenodd"/>
    </mask>
    <mask id="b" fill="#fff">
      <path d="M0 0h313.303v159.865H0z" fill="#fff" fill-rule="evenodd"/>
    </mask>
  </defs>

  <rect width="1200" height="630" fill="url(#bg)"/>

  <g transform="translate(357 34) scale(1.6)">
    <g fill="none" fill-rule="evenodd" transform="translate(-11 -51)">
      <path d="m11.679 189h19.786v26.789h23.904V189h19.786v75.25H55.368v-28.695h-23.904v28.695H11.679zm86.174 75.25V189h46.803v16.354h-27.017v12.241h23.904v16.655h-23.904v13.846h27.017v16.154zm68.497 0V189h19.786v55.384h27.118v19.866zm77.536-75.25 30.733 27.893 30.633-27.893h8.939v75.25h-19.886v-38.628l-19.685 17.96-19.786-17.859v38.527h-19.886V189z" fill="#f3f6ff"/>
      <g transform="matrix(1 0 0 -1 11.958 455)">
        <g fill="#f3f6ff" mask="url(#a)">
          <path d="m203.461 95.688c6.936 0 12.559-14.809 12.559-33.077s-5.623-33.077-12.559-33.077-12.559 14.809-12.559 33.077 5.623 33.077 12.559 33.077z" transform="matrix(.81915204 .57357644 -.57357644 .81915204 111.870091 -51.706556)"/>
          <path d="m30.142 95.688c6.936 0 12.559-14.809 12.559-33.077s-5.623-33.077-12.559-33.077-12.559 14.809-12.559 33.077 5.623 33.077 12.559 33.077z" transform="matrix(-.81915204 .57357644 .57357644 .81915204 58.084611 47.704768)"/>
          <path d="m116.733 66.275c6.936 0 12.559-14.809 12.559-33.077 0-18.268-5.623-33.077-12.559-33.077-6.937 0-12.559 14.809-12.559 33.077 0 18.268 5.622 33.077 12.559 33.077z" transform="matrix(-1 0 0 1 272.628524 53.670762)"/>
        </g>
        <path d="m251.467 173.1c-20.23-33.61-56.89-56.068-98.756-56.068-40.721 0-76.516 21.246-97.059 53.335m2.198 129.169c20.84 30.233 55.556 50.027 94.861 50.027 39.376 0 74.146-19.866 94.974-50.192" mask="url(#a)" stroke="#f3f6ff" stroke-width="20"/>
      </g>
      <g transform="translate(11.958)">
        <g fill="#f3f6ff" mask="url(#b)">
          <path d="m203.461 95.688c6.936 0 12.559-14.809 12.559-33.077s-5.623-33.077-12.559-33.077-12.559 14.809-12.559 33.077 5.623 33.077 12.559 33.077z" transform="matrix(.81915204 .57357644 -.57357644 .81915204 111.870091 -54.166016)"/>
          <path d="m30.142 95.688c6.936 0 12.559-14.809 12.559-33.077s-5.623-33.077-12.559-33.077-12.559 14.809-12.559 33.077 5.623 33.077 12.559 33.077z" transform="matrix(-.81915204 .57357644 .57357644 .81915204 58.084611 45.245308)"/>
          <path d="m116.733 66.275c6.936 0 12.559-14.809 12.559-33.077 0-18.268-5.623-33.077-12.559-33.077-6.937 0-12.559 14.809-12.559 33.077 0 18.268 5.622 33.077 12.559 33.077z" transform="matrix(-1 0 0 1 272.628524 51.211302)"/>
        </g>
        <path d="m251.467 170.64c-20.23-33.61-56.89-56.068-98.756-56.068-40.721 0-76.516 21.246-97.059 53.335m2.198 129.169c20.84 30.233 55.556 50.027 94.861 50.027 39.376 0 74.146-19.866 94.974-50.191" mask="url(#b)" stroke="#f3f6ff" stroke-width="20"/>
      </g>
    </g>
  </g>
</svg>
